<svg xmlns="http://www.w3.org/2000/svg" width="400" height="36" viewBox="0 0 202.47 36"><text transform="translate(40.47 27)" fill="#141414" font-size="30" font-family="Mistral"><tspan x="0" y="0">Mike&apos;s Bike Shop</tspan></text><path d="M27.116,9.506a7.1,7.1,0,0,0-3.3.808,49.94,49.94,0,0,1-2.15-8.79C22.48,1.5,24.9,1.342,25.851.392a.229.229,0,1,0-.324-.324c-.991.991-4.088,1-4.12,1a.23.23,0,0,0-.228.259,51.6,51.6,0,0,0,1,5.093h-9.1l-.989-2.355.11-.025c2.151-.474,2.789-.558,2.789-1.233,0-.44-.1-.44-.521-.44H9.046a.464.464,0,0,0-.482.529c0,2.04.681,1.819,3.075,1.27l1,2.38-2.163,3.785a7.137,7.137,0,1,0,3.789,6.536h2.861a.232.232,0,0,0,.089-.018c.005,0,.008-.006.013-.009a.231.231,0,0,0,.027-.019.223.223,0,0,0,.055-.054c0-.006.01-.007.014-.013l5.255-8.822c.262.927.538,1.8.829,2.608a7.137,7.137,0,1,0,3.708-1.038ZM12.862,7.084l3.919,9.329H14.265a7.129,7.129,0,0,0-3.392-5.849Zm-.743,9.329H7.531l2.276-3.983A4.987,4.987,0,0,1,12.119,16.412ZM7.136,21.637A4.995,4.995,0,1,1,9.41,12.2L6.937,16.528a.229.229,0,0,0,.2.343h4.983A5,5,0,0,1,7.136,21.637Zm10.026-5.5L13.274,6.881h9.017c.038.148.078.3.118.448,0,0-.008.006-.01.012Zm9.954,5.5a4.99,4.99,0,0,1-2.891-9.06A14.2,14.2,0,0,0,26.954,16.8a.23.23,0,0,0,.162.068.226.226,0,0,0,.162-.068.229.229,0,0,0,0-.324,14,14,0,0,1-2.657-4.159,4.993,4.993,0,1,1,2.495,9.317Z" transform="translate(0 6)" fill="#141414"/></svg>